<svg width="299" height="294" viewBox="0 0 299 294" fill="none" xmlns="http://www.w3.org/2000/svg">
    <path d="M43.741 46.915C16.7146 73.958 0 111.308 0 152.561C0 191.488 14.882 226.938 39.2669 253.534L45.6976 244.118V164.699C45.2368 160.717 45 156.667 45 152.561C45 148.456 45.2368 144.406 45.6976 140.424V50.0757L43.741 46.915Z" fill="#F3F3F3"/>
    <path d="M230.889 217.978C245.289 200.075 253.906 177.325 253.906 152.561C253.906 97.6598 211.549 52.6512 157.731 48.4316V3.33379C236.421 7.62972 298.906 72.7985 298.906 152.561C298.906 176.022 293.5 198.22 283.866 217.978H230.889Z" fill="#F3F3F3"/>
    <path d="M134.927 0H41.5192L68.5038 43.5905V251.164L39.4435 293.717H241.828L283.342 240.785H134.927V0Z" fill="#F3F3F3"/>
</svg>
