<svg width="118" height="118" viewBox="0 0 118 118" fill="none" xmlns="http://www.w3.org/2000/svg">
<path d="M29.206 29.2045C37.1079 21.3034 47.8249 16.8647 58.9995 16.8647C70.1742 16.8647 80.8911 21.3034 88.793 29.2045L100.719 17.2817C95.2408 11.8028 88.7367 7.4566 81.5784 4.49139C74.4201 1.52618 66.7477 0 58.9995 0C51.2513 0 43.579 1.52618 36.4207 4.49139C29.2624 7.4566 22.7583 11.8028 17.2798 17.2817L29.206 29.2045Z" fill="#F3F3F3"/>
<path d="M104.168 21.0455L92.1829 33.0273C97.4354 39.7433 100.528 47.8942 101.052 56.404C101.576 64.9138 99.5068 73.3825 95.118 80.6921L73.4277 58.9939L61.6106 31.228H61.5516V68.7575L84.9675 92.1725C77.5534 97.9703 68.4121 101.12 59 101.12C49.5879 101.12 40.4466 97.9703 33.0325 92.1725L56.4513 68.7575V31.3725L44.5723 58.9968L22.8761 80.6921C18.4881 73.3819 16.4201 64.9129 16.9452 56.4031C17.4702 47.8933 20.5637 39.7427 25.8171 33.0273L13.8319 21.0455C6.6039 29.6461 1.98183 40.1314 0.509133 51.2687C-0.963561 62.406 0.774348 73.7323 5.51852 83.9158C10.2627 94.0993 17.8159 102.717 27.29 108.755C36.7641 114.792 47.7653 118 59 118C70.2347 118 81.2359 114.792 90.71 108.755C100.184 102.717 107.737 94.0993 112.481 83.9158C117.226 73.7323 118.964 62.406 117.491 51.2687C116.018 40.1314 111.396 29.6461 104.168 21.0455Z" fill="#F3F3F3"/>
</svg>
