<svg width="118" height="118" viewBox="0 0 118 118" fill="none" xmlns="http://www.w3.org/2000/svg">
    <path fill-rule="evenodd" clip-rule="evenodd" d="M30.0082 19.0672V98.4771C30.0082 98.4771 28.738 117.472 57.8499 116.827C57.8499 116.827 84.0367 120.008 87.3349 99.1109V48.6405C87.3349 48.6405 85.3071 38.3209 67.4645 38.3209C67.4645 38.3209 55.1928 38.0627 54.5635 42.0191L54.4353 22.1314C54.4353 22.1314 58.3629 17.6701 63.4206 22.2605L63.2924 34.1179H87.3349V19.0672C87.3349 19.0672 87.2765 -1.06696 59.0271 0.0717467L59.0233 0.0714514C58.6596 0.0423814 32.1499 -2.07622 30.0082 19.0672ZM75.4717 61.9298C77.0966 60.7965 77.0948 60.7939 77.0948 60.7939L77.0929 60.7912L77.0888 60.7855L77.0798 60.7728L77.0581 60.7429C77.0419 60.7209 77.0223 60.695 76.9993 60.6655C76.9533 60.6066 76.8933 60.5332 76.8189 60.449C76.6705 60.281 76.4622 60.0671 76.1905 59.8386C75.6472 59.3814 74.8376 58.8551 73.7444 58.5346C71.4883 57.8732 68.5073 58.2158 64.8385 60.7149C64.7938 60.7383 64.7303 60.771 64.65 60.8111C64.4641 60.9039 64.1913 61.0348 63.8575 61.1793C63.1789 61.4729 62.2981 61.8013 61.4079 61.9961C60.4834 62.1983 59.7485 62.2113 59.2594 62.0714C58.901 61.9689 58.6387 61.7923 58.4551 61.2545L57.997 59.9133H48.2699V60.5473H46.8482V61.8859H46.1606V67.3286H46.883V100.323H46.1487V106.247H48.0717V106.963H57.8039V106.164H58.573V86.0582C58.7321 85.9349 58.936 85.7955 59.1864 85.659C59.9663 85.2336 61.2771 84.7899 63.2535 85.04L65.484 85.3223V74.4902C65.9005 74.3413 66.4355 74.1682 67.086 73.9934C68.9516 73.4921 71.7709 72.9753 75.4711 72.9753H77.4529V61.3074L77.0966 60.7965L75.4717 61.9298ZM57.197 82.2758V76.6992C60.3552 73.8346 61.8003 76.0182 61.7891 76.0299L62.2901 75.5484C62.1269 74.7032 60.7867 74.4684 60.7867 74.4684L60.7517 73.1536H62.0569L62.8492 74.5507V82.2758H57.197Z" fill="white"/>
</svg>
