<svg width="59" height="121" viewBox="0 0 59 121" fill="none" xmlns="http://www.w3.org/2000/svg">
<path fill-rule="evenodd" clip-rule="evenodd" d="M0.0103713 19.8379V101.549C0.0103713 101.549 -1.29658 121.095 28.6588 120.43C28.6588 120.43 55.6045 123.704 58.9983 102.201V50.2681C58.9983 50.2681 56.9117 39.6495 38.5521 39.6495C38.5521 39.6495 25.9248 39.3838 25.2772 43.4548L25.1454 22.9908C25.1454 22.9908 29.1867 18.4003 34.391 23.1237L34.2591 35.3247H58.9983V19.8379C58.9983 19.8379 58.9382 -0.879741 29.8702 0.291965L29.8663 0.291662C29.492 0.261749 2.21412 -1.91824 0.0103713 19.8379ZM46.7913 63.9425C48.4633 62.7764 48.4614 62.7737 48.4614 62.7737L48.4594 62.7709L48.4553 62.765L48.446 62.752L48.4236 62.7212C48.4146 62.7089 48.4044 62.6953 48.3933 62.6806C48.384 62.6684 48.3739 62.6553 48.3632 62.6416C48.3158 62.5809 48.2541 62.5054 48.1776 62.4188C48.0249 62.2459 47.8105 62.0259 47.531 61.7907C46.9719 61.3203 46.1388 60.7787 45.014 60.449C42.6925 59.7684 39.6251 60.1209 35.85 62.6924C35.804 62.7165 35.7386 62.7502 35.656 62.7914C35.4648 62.8869 35.184 63.0215 34.8405 63.1702C34.1423 63.4724 33.236 63.8103 32.3199 64.0107C31.3687 64.2188 30.6125 64.2322 30.1092 64.0882C29.7405 63.9828 29.4706 63.801 29.2816 63.2477L28.8102 61.8676H18.8013V62.52H17.3384V63.8974H16.6308V69.4978H17.3742V103.448H16.6187V109.543H18.5973V110.28H28.6116V109.459H29.403V88.7701C29.5666 88.6432 29.7764 88.4998 30.0341 88.3593C30.8366 87.9216 32.1854 87.4651 34.219 87.7224L36.5142 88.0129V76.8669C36.9427 76.7136 37.4933 76.5356 38.1626 76.3557C40.0823 75.8398 42.9832 75.3081 46.7907 75.3081H48.8299V63.302L48.4633 62.7764L46.7913 63.9425ZM27.9871 84.8781V79.1399C31.2368 76.1923 32.7238 78.4392 32.7123 78.4512L33.2278 77.9558C33.0599 77.0861 31.6808 76.8445 31.6808 76.8445L31.6448 75.4916H32.9878L33.8031 76.9292V84.8781H27.9871Z" fill="#F3F3F3"/>
</svg>