<svg width="254" height="50" viewBox="0 0 254 50" fill="none" xmlns="http://www.w3.org/2000/svg">
    <path d="M85.2606 10.4775H98.8844C102.168 10.4775 104.946 11.0103 107.218 12.0757C109.31 12.9902 111.087 14.5425 112.314 16.5278C113.462 18.489 114.05 20.7493 114.01 23.045C114.035 25.3513 113.424 27.6167 112.249 29.5726C110.937 31.6388 109.062 33.2506 106.864 34.2011C104.455 35.3426 101.469 35.9117 97.9063 35.9082H85.2606V10.4775ZM97.7665 29.4377C99.9789 29.4377 101.679 28.8635 102.867 27.715C103.469 27.1077 103.939 26.3737 104.247 25.562C104.554 24.7504 104.691 23.8798 104.648 23.0087C104.685 22.2 104.564 21.392 104.291 20.6337C104.018 19.8755 103.6 19.1829 103.061 18.5981C101.997 17.4981 100.395 16.9463 98.2556 16.9429H93.9938V29.4377H97.7665Z" fill="white"/>
    <path d="M134.411 35.8706C132.614 35.4023 130.895 34.6554 129.311 33.6549V27.6255C130.693 28.671 132.25 29.4415 133.902 29.8982C135.709 30.4715 137.587 30.7704 139.476 30.7855C140.129 30.8217 140.78 30.7046 141.383 30.443C141.812 30.2147 142.027 29.9241 142.027 29.6232C142.031 29.455 142.002 29.2877 141.942 29.1315C141.882 28.9753 141.792 28.8336 141.677 28.7151C141.279 28.3963 140.811 28.1843 140.315 28.0976L136.123 27.1169C133.721 26.5358 132.016 25.7315 131.008 24.7041C130.502 24.1734 130.107 23.5391 129.85 22.8415C129.592 22.1438 129.476 21.3981 129.511 20.6516C129.494 19.2987 129.968 17.9889 130.838 16.9831C131.87 15.8481 133.171 15.0159 134.611 14.5702C136.463 13.9648 138.398 13.6756 140.34 13.7141C142.152 13.6964 143.96 13.916 145.719 14.3679C147.141 14.718 148.506 15.2808 149.772 16.0387V21.7465C148.584 21.0303 147.308 20.4873 145.979 20.1327C144.539 19.7312 143.054 19.5288 141.562 19.5308C139.373 19.5308 138.279 19.9182 138.279 20.6931C138.275 20.8657 138.32 21.0355 138.409 21.1813C138.498 21.3272 138.626 21.4425 138.778 21.513C139.376 21.7774 140.003 21.9655 140.644 22.0734L144.137 22.7272C146.406 23.1423 148.098 23.8687 149.213 24.9065C150.327 25.9443 150.886 27.4629 150.889 29.4623C150.907 30.5137 150.66 31.5516 150.172 32.4729C149.685 33.3941 148.974 34.1666 148.11 34.7135C146.27 35.9968 143.643 36.6368 140.23 36.6333C138.267 36.6365 136.312 36.3802 134.411 35.8706Z" fill="white"/>
    <path d="M159.144 35.108C157.276 34.2157 155.702 32.7721 154.617 30.9569C153.606 29.1767 153.087 27.1401 153.12 25.0727C153.09 23.0064 153.636 20.9754 154.692 19.2248C155.818 17.4381 157.42 16.0315 159.303 15.1775C161.593 14.1403 164.073 13.6372 166.569 13.7038C170.063 13.7038 172.962 14.4666 175.267 15.9921V22.6495C174.39 22.0364 173.432 21.5592 172.423 21.2329C171.293 20.8621 170.114 20.6782 168.93 20.6881C166.764 20.6881 165.069 21.0997 163.845 21.923C163.294 22.2424 162.835 22.7077 162.514 23.2715C162.192 23.8353 162.02 24.4775 162.015 25.1328C162.01 25.7881 162.172 26.4332 162.485 27.0023C162.797 27.5714 163.249 28.0443 163.795 28.3728C164.982 29.2065 166.706 29.6233 168.965 29.6233C170.131 29.6262 171.291 29.4514 172.408 29.1044C173.427 28.8006 174.406 28.3666 175.322 27.8124V34.2466C172.622 35.8836 169.54 36.7132 166.415 36.6439C163.91 36.7149 161.423 36.1896 159.144 35.108Z" fill="white"/>
    <path d="M183.966 35.1082C182.077 34.2116 180.475 32.771 179.35 30.9571C178.289 29.1812 177.738 27.127 177.763 25.0366C177.729 22.971 178.281 20.9407 179.35 19.1991C180.481 17.4314 182.076 16.0377 183.946 15.1829C188.538 13.2457 193.676 13.2457 198.268 15.1829C200.13 16.0311 201.719 17.418 202.844 19.1784C203.906 20.9263 204.453 22.9592 204.416 25.0262C204.441 27.1146 203.896 29.1674 202.844 30.9467C201.731 32.7619 200.137 34.2035 198.253 35.0978C195.996 36.1044 193.566 36.6234 191.109 36.6234C188.653 36.6234 186.223 36.1044 183.966 35.0978V35.1082ZM194.58 28.6636C195.012 28.2004 195.348 27.6502 195.568 27.047C195.787 26.4438 195.886 25.8003 195.858 25.156C195.888 24.5176 195.79 23.8798 195.57 23.283C195.35 22.6863 195.013 22.1437 194.58 21.6898C194.111 21.2422 193.56 20.8972 192.96 20.6752C192.36 20.4533 191.723 20.3589 191.087 20.3978C190.452 20.363 189.816 20.4593 189.216 20.681C188.617 20.9028 188.065 21.2456 187.594 21.6898C187.163 22.1447 186.827 22.6876 186.608 23.2842C186.389 23.8808 186.291 24.5181 186.321 25.156C186.293 25.7998 186.392 26.4429 186.61 27.0459C186.829 27.649 187.164 28.1994 187.594 28.6636C188.061 29.1168 188.611 29.4675 189.211 29.6949C189.811 29.9222 190.449 30.0215 191.087 29.9868C191.725 30.0254 192.364 29.928 192.965 29.7004C193.566 29.4729 194.115 29.1201 194.58 28.6636Z" fill="white"/>
    <path d="M225.411 15.0475V22.9035C224.368 22.2564 223.166 21.9407 221.953 21.9954C220.091 21.9954 218.654 22.587 217.656 23.7596C216.658 24.9323 216.159 26.7536 216.159 29.2235V35.9068H207.6V14.6584H215.984V21.4039C216.45 18.934 217.202 17.1127 218.24 15.94C218.743 15.3634 219.36 14.907 220.05 14.6024C220.739 14.2979 221.483 14.1523 222.232 14.1758C223.35 14.1441 224.453 14.4466 225.411 15.0475Z" fill="white"/>
    <path d="M253.846 9.75513V35.9071H245.288V31.1333C244.642 32.8328 243.483 34.2679 241.984 35.2221C240.329 36.2022 238.448 36.6904 236.544 36.6335C234.753 36.6769 232.99 36.1657 231.479 35.165C230.016 34.1766 228.85 32.7792 228.116 31.1333C227.314 29.3164 226.915 27.3358 226.948 25.3373C226.891 23.2652 227.316 21.2095 228.185 19.3442C228.985 17.6356 230.232 16.1966 231.784 15.1931C233.378 14.1884 235.214 13.6722 237.078 13.7039C241.15 13.7039 243.887 15.5442 245.288 19.2248V9.75513H253.846ZM244.03 28.5389C244.466 28.0925 244.808 27.5565 245.034 26.9651C245.26 26.3736 245.365 25.7398 245.342 25.1038C245.361 24.4869 245.254 23.873 245.027 23.3023C244.801 22.7317 244.461 22.2174 244.03 21.7933C243.051 20.9644 241.827 20.5119 240.564 20.5119C239.301 20.5119 238.077 20.9644 237.098 21.7933C236.668 22.2272 236.331 22.7503 236.108 23.3288C235.885 23.9072 235.782 24.5279 235.806 25.1505C235.784 25.7789 235.889 26.4052 236.114 26.9888C236.339 27.5724 236.68 28.1005 237.113 28.5389C237.572 28.982 238.111 29.3255 238.699 29.5491C239.286 29.7728 239.911 29.8721 240.537 29.8413C241.173 29.8778 241.81 29.7814 242.41 29.5577C243.01 29.334 243.561 28.9876 244.03 28.5389Z" fill="white"/>
    <path d="M53.7465 4.18742C49.5779 2.20303 45.1771 0.795236 40.6567 0C40.0381 1.14979 39.4784 2.33278 38.9799 3.544C34.1647 2.78955 29.268 2.78955 24.4529 3.544C23.9541 2.3329 23.3944 1.14993 22.7761 0C18.2527 0.801951 13.8491 2.21309 9.67632 4.1978C1.39227 16.9417 -0.853405 29.369 0.269433 41.62C5.12078 45.3469 10.5508 48.1813 16.3235 50C17.6234 48.1822 18.7736 46.2538 19.7619 44.2352C17.8847 43.5062 16.0728 42.6067 14.3473 41.5473C14.8014 41.2049 15.2456 40.852 15.6748 40.5095C20.6956 42.9646 26.1756 44.2376 31.7239 44.2376C37.2722 44.2376 42.7521 42.9646 47.773 40.5095C48.2071 40.878 48.6513 41.2308 49.1004 41.5473C47.3716 42.6085 45.5564 43.5096 43.6758 44.2404C44.663 46.258 45.8132 48.1849 47.1142 50C52.8919 48.1886 58.3261 45.3556 63.1783 41.6252C64.4958 27.418 60.9276 15.1048 53.7465 4.18742ZM21.1842 34.0857C18.0552 34.0857 15.4702 31.1333 15.4702 27.501C15.4702 23.8688 17.9654 20.8904 21.1742 20.8904C24.383 20.8904 26.9481 23.8688 26.8932 27.501C26.8383 31.1333 24.373 34.0857 21.1842 34.0857ZM42.2636 34.0857C39.1296 34.0857 36.5546 31.1333 36.5546 27.501C36.5546 23.8688 39.0498 20.8904 42.2636 20.8904C45.4774 20.8904 48.0225 23.8688 47.9676 27.501C47.9127 31.1333 45.4524 34.0857 42.2636 34.0857Z" fill="white"/>
    <path d="M121.226 16.9208C123.583 16.9208 125.493 15.1366 125.493 12.9357C125.493 10.7349 123.583 8.95068 121.226 8.95068C118.87 8.95068 116.959 10.7349 116.959 12.9357C116.959 15.1366 118.87 16.9208 121.226 16.9208Z" fill="white"/>
    <path d="M116.955 19.666C118.306 20.2567 119.758 20.5609 121.224 20.5609C122.69 20.5609 124.141 20.2567 125.493 19.666V36.0213H116.955V19.666Z" fill="white"/>
</svg>
