<svg width="199" height="100" viewBox="0 0 199 100" fill="none" xmlns="http://www.w3.org/2000/svg">
    <path d="M170.7 97.4775H193.773V80L170.7 97.4775Z" fill="#DDA068"/>
    <path d="M106.71 81.0811L92.1998 87.2072L64.9814 75.045L101.032 76.8468L103.015 78.2883L103.375 78.5586L106.71 81.0811Z" fill="#DDA068"/>
    <path d="M89.496 67.9279L14.871 59.009L71.8311 54.4144L89.496 67.9279Z" fill="#DDA068"/>
    <path d="M64.8012 47.1171H39.6558L0 19.7297L38.3039 26.8469L64.8012 47.1171Z" fill="#DDA068"/>
    <path d="M33.437 7.74774L71.3804 38.5586H96.2554L80.1227 13.8739L33.437 7.74774Z" fill="#DDA068"/>
    <path d="M126.448 97.4775H94.0924L111.577 86.036L126.448 97.4775Z" fill="#DDA068"/>
    <path d="M98.9592 0L103.916 38.9189H140.868L98.9592 0Z" fill="#DDA068"/>
    <path d="M144.654 11.6216L147.448 38.9189H164.481L144.654 11.6216Z" fill="#DDA068"/>
    <path d="M193.592 25.2252L191.97 38.9189H172.593L193.592 25.2252Z" fill="#DDA068"/>
    <path d="M188.185 56.3964L199 48.1081H81.3845L149.07 100L183.318 74.054L194.133 65.7658H162.859L168.808 74.054L153.035 86.036V56.3964H188.095H188.185ZM143.842 85.1351L106.62 56.3964H143.842V85.1351Z" fill="#DDA068"/>
</svg>
